DBRep_DrawableShape

CASCADE Topology V3, (c) Open Cascade
Locations 0
Curve2ds 0
Curves 32
1 4 8.0800000000000001 10.234 -0.95835674068984888 0 -0.28557373404136782 
1 -0.058999999999999997 8.0800000000000001 9.0244882000000004 0 -1 0 
1 -0.058999999999999997 -0.080000000000000071 9.0244882000000004 0.95835674068984888 0 0.28557373404136782 
8 0 8.1600000000000001
1 4 -0.080000000000000071 10.234 0 1 0 
1 -0.059000000000001052 8.0800000000000001 9.0244882000000004 0 0 -1 
1 4 8.0800000000000001 9.8839999999999986 -0.95835674068984888 0 -0.28557373404136782 
1 8.0589999999999993 8.0800000000000001 8.674488199999999 -0.95835674068984888 0 0.28557373404136788 
1 8.0589999999999993 8.0800000000000001 9.0244882000000004 0 0 -1 
1 8.0589999999999993 8.0800000000000001 9.0244882000000004 -0.95835674068984888 0 0.28557373404136788 
1 -0.058999999999999997 -0.080000000000000071 9.0244882000000004 0 0 -1 
1 -0.058999999999999997 8.0800000000000001 8.674488199999999 0 -1 0 
1 4 -0.080000000000000071 10.234 0.95835674068984888 0 -0.28557373404136788 
1 8.0589999999999993 -0.080000000000000071 9.0244882000000004 0 0 -1 
1 4 -0.080000000000000071 9.8839999999999986 0.95835674068984888 0 -0.28557373404136788 
1 -0.058999999999999997 -0.080000000000000071 8.674488199999999 0.95835674068984888 0 0.28557373404136782 
1 8.0589999999999993 -0.080000000000000071 9.0244882000000004 0 1 0 
8 0 8.1600000000000001
1 4 -0.080000000000000071 9.8839999999999986 0 1 0 
1 3.3112253488669525 7.6699999999999999 9.6787570662512152 0.95835674068984888 0 0.28557373404136788 
1 0.32999999999999996 5.835 8.7904034722838116 0 1 0 
1 -0.059477498835256437 0.32999999999999963 8.6743459136053858 -0.95835674068984888 -0 -0.28557373404136788 
1 8.0589999999999993 -0.080000000000000071 8.674488199999999 0 1 0 
1 4.6887746511330466 0.33000000000000007 9.6787570662512152 -0.95835674068984888 0 0.28557373404136782 
1 7.6699999999999999 2.165 8.7904034722838116 0 -1 -2.1952824385278717e-18 
1 8.0594774988352551 7.6699999999999999 8.6743459136053858 0.95835674068984888 -0 -0.28557373404136782 
1 0.33000000000000007 7.6699999999999999 -0.050000000000000003 0 0 1 
1 7.6699999999999999 7.6699999999999999 -0.050000000000000003 -1 0 0 
8 0 9.1904034722838119
1 7.6699999999999999 7.6699999999999999 9.1404034722838112 0 0 -1 
1 0.33000000000000002 0.33000000000000007 -0.050000000000000003 0 0 1 
1 0.33000000000000002 7.6699999999999999 -0.050000000000000003 0 -1 0 
8 0 9.1904034722838119
1 7.6699999999999999 0.33000000000000007 -0.050000000000000003 0 0 1 
1 0.33000000000000002 0.33000000000000007 -0.050000000000000003 1 0 0 
1 7.6699999999999999 0.33000000000000007 -0.050000000000000003 -0 1 0 
Polygon3D 0
PolygonOnTriangulations 0
Surfaces 13
1 1.9704999999999999 4 9.6292440999999993 -0.28557373404136788 0 0.95835674068984888 0.95835674068984888 0 0.28557373404136788 0 1 -0 
1 1.9704999999999995 8.0800000000000001 9.4542440999999986 0 -1 -0 -0.95835674068984888 0 -0.28557373404136782 0.28557373404136782 0 -0.95835674068984888 
1 -0.058999999999999997 8.0800000000000001 9.0244882000000004 1 0 0 0 -1 0 0 0 -1 
1 1.9705000000000006 -0.080000000000000071 9.4542441000000004 -0 1 0 0.95835674068984888 0 0.28557373404136782 0.28557373404136782 0 -0.95835674068984888 
1 6.0294999999999996 4 9.6292440999999993 0.28557373404136782 -2.1038637226812346e-18 0.95835674068984888 0.95835674068984888 -3.8518598887744717e-34 -0.28557373404136782 6.0080821920025334e-19 1 2.0162519801244e-18 
1 1.9704999999999999 4 9.2792440999999979 -0.28557373404136788 0 0.95835674068984888 0.95835674068984888 0 0.28557373404136788 0 1 -0 
1 8.0589999999999993 -0.080000000000000071 9.0244882000000004 -1 0 0 0 1 0 0 0 -1 
1 6.0294999999999996 4 9.2792440999999979 0.28557373404136782 -2.1038637226812346e-18 0.95835674068984888 0.95835674068984888 -3.8518598887744717e-34 -0.28557373404136782 6.0080821920025334e-19 1 2.0162519801244e-18 
1 7.6699999999999999 7.6699999999999999 -0.050000000000000003 0 1 -0 -1 0 0 0 0 1 
1 0.33000000000000002 7.6699999999999999 -0.050000000000000003 -1 0 0 0 -1 0 0 0 1 
1 0.33000000000000002 0.33000000000000007 -0.050000000000000003 0 -1 0 1 0 0 -0 0 1 
1 7.6699999999999999 0.33000000000000007 -0.050000000000000003 1 0 0 -0 1 0 0 -0 1 
1 3.9999999999999991 3.9999999999999991 -0.049999999999999989 1.0295343791689075e-33 8.0074896157581696e-34 1 1 0 -1.0295343791689075e-33 -8.2439858502610612e-67 1 -8.0074896157581696e-34 
Triangulations 0

TShapes 83
Ve
1.01e-07
4 8.08 10.234
0 0

0101101
*
Ve
1.01e-07
-0.059 8.08 9.0244882
0 0

0101101
*
Ed
 1.00005e-07 1 1 0
1  1 0 0 4.23537481155319
0

0101000
+83 0 -82 0 *
Ve
1.01e-07
-0.059 -0.0800000000000001 9.0244882
0 0

0101101
*
Ed
 1.00005e-07 1 1 0
1  2 0 0 8.16
0

0101000
+82 0 -80 0 *
Ve
1.01e-07
4 -0.0800000000000001 10.234
0 0

0101101
*
Ed
 1.00005e-07 1 1 0
1  3 0 0 4.23537481155319
0

0101000
+80 0 -78 0 *
Ed
 1e-07 1 1 0
1  4 0 0 8.16
0

0101000
+78 0 -83 0 *
Wi

0101100
+81 0 +79 0 +77 0 +76 0 *
Fa
0  1e-07 1 0

0101000
+75 0 *
Ve
1.01e-07
-0.059 8.08 8.6744882
0 0

0101101
*
Ed
 1e-07 1 1 0
1  5 0 0 0.350000000000001
0

0101000
+82 0 -73 0 *
Ve
1.01e-07
4 8.08 9.884
0 0

0101101
*
Ed
 1.00005e-07 1 1 0
1  6 0 0 4.23537481155319
0

0101000
-73 0 +71 0 *
Ve
1.01e-07
8.059 8.08 8.6744882
0 0

0101101
*
Ed
 1.00005e-07 1 1 0
1  7 0 0 4.23537481155319
0

0101000
-71 0 +69 0 *
Ve
1.01e-07
8.059 8.08 9.0244882
0 0

0101101
*
Ed
 1e-07 1 1 0
1  8 0 0 0.350000000000001
0

0101000
-69 0 +67 0 *
Ed
 1.00005e-07 1 1 0
1  9 0 0 4.23537481155319
0

0101000
+67 0 -83 0 *
Wi

0101100
+81 0 +72 0 -70 0 -68 0 -66 0 +65 0 *
Fa
0  1e-07 2 0

0101000
+64 0 *
Ve
1.01e-07
-0.059 -0.0800000000000001 8.6744882
0 0

0101101
*
Ed
 1e-07 1 1 0
1  10 0 0 0.350000000000001
0

0101000
-62 0 +80 0 *
Ed
 1.00005e-07 1 1 0
1  11 0 0 8.16
0

0101000
+73 0 -62 0 *
Wi

0101100
-72 0 +79 0 +61 0 -60 0 *
Fa
0  1e-07 3 0

0101000
+59 0 *
Ve
1.01e-07
8.059 -0.0800000000000001 9.0244882
0 0

0101101
*
Ed
 1.00005e-07 1 1 0
1  12 0 0 4.23537481155319
0

0101000
+78 0 -57 0 *
Ve
1.01e-07
8.059 -0.0800000000000001 8.6744882
0 0

0101101
*
Ed
 1e-07 1 1 0
1  13 0 0 0.350000000000001
0

0101000
+57 0 -55 0 *
Ve
1.01e-07
4 -0.0800000000000001 9.884
0 0

0101101
*
Ed
 1.00005e-07 1 1 0
1  14 0 0 4.23537481155319
0

0101000
-55 0 +53 0 *
Ed
 1.00005e-07 1 1 0
1  15 0 0 4.23537481155319
0

0101000
-53 0 +62 0 *
Wi

0101100
-61 0 +77 0 +56 0 +54 0 -52 0 -51 0 *
Fa
0  1e-07 4 0

0101000
+50 0 *
Ed
 1.00005e-07 1 1 0
1  16 0 0 8.16
0

0101000
+57 0 -67 0 *
Wi

0101100
+56 0 +48 0 +65 0 -76 0 *
Fa
0  1e-07 5 0

0101000
+47 0 *
Ve
2.12133034355964e-07
4 7.67 9.884
0 0

0101101
*
Ed
 1.00005e-07 1 1 0
1  17 0 7.75 8.16
0

0101000
+45 0 -71 0 *
Ve
2.50974316871113e-07
0.33 7.67 8.79040347228381
0 0

0101101
*
Ed
 1.5e-07 1 1 0
1  18 0 -3.11076786158043 0.7187038207059
0

0101000
+43 0 -45 0 *
Ve
2.50974316871113e-07
0.33 0.33 8.79040347228381
0 0

0101101
*
Ed
 1.5e-07 1 1 0
1  19 0 -5.505 1.835
0

0101000
+41 0 -43 0 *
Ve
2.12133034355964e-07
4 0.33 9.884
0 0

0101101
*
Ed
 1.5e-07 1 1 0
1  20 0 -4.23587305903765 -0.406401376751313
0

0101000
+39 0 -41 0 *
Ed
 1.00005000888178e-07 1 1 0
1  17 0 0 0.41
0

0101000
+53 0 -39 0 *
Wi

0101100
+44 0 +42 0 +40 0 +38 0 +37 0 +51 0 +60 0 +70 0 *
Fa
0  1e-07 6 0

0101000
+36 0 *
Ed
 1.00005e-07 1 1 0
1  21 0 0 8.16
0

0101000
+55 0 -69 0 *
Wi

0101100
-54 0 +48 0 +66 0 -34 0 *
Fa
0  1e-07 7 0

0101000
+33 0 *
Ve
2.50974316871113e-07
7.67 0.33 8.79040347228381
0 0

0101101
*
Ed
 1.5e-07 1 1 0
1  22 0 -3.11076786158043 0.718703820705899
0

0101000
+31 0 -39 0 *
Ve
2.50974316871113e-07
7.67 7.67 8.79040347228381
0 0

0101101
*
Ed
 1.5e-07 1 1 0
1  23 0 -5.505 1.835
0

0101000
+29 0 -31 0 *
Ed
 1.5e-07 1 1 0
1  24 0 -4.23587305903764 -0.406401376751312
0

0101000
+45 0 -29 0 *
Wi

0101100
+52 0 -37 0 +30 0 +28 0 +27 0 -44 0 +68 0 +34 0 *
Fa
0  1e-07 8 0

0101000
+26 0 *
Ve
1.01e-07
0.33 7.67 -0.05
0 0

0101101
*
Ed
 1e-07 1 1 0
1  25 0 0 8.84040347228381
0

0101000
+24 0 -43 0 *
Ve
1.01e-07
7.67 7.67 -0.05
0 0

0101101
*
Ed
 1.00005e-07 1 1 0
1  26 0 0 7.34
0

0101000
+22 0 -24 0 *
Ed
 1e-07 1 1 0
1  27 0 0.350000000000001 9.19040347228381
0

0101000
+29 0 -22 0 *
Wi

0101100
+27 0 +42 0 +23 0 +21 0 +20 0 *
Fa
0  1e-07 9 0

0101000
+19 0 *
Ve
1.01e-07
0.33 0.33 -0.05
0 0

0101101
*
Ed
 1e-07 1 1 0
1  28 0 0 8.84040347228381
0

0101000
-41 0 +17 0 *
Ed
 1.00005e-07 1 1 0
1  29 0 0 7.34
0

0101000
+24 0 -17 0 *
Wi

0101100
-23 0 +40 0 +16 0 +15 0 *
Fa
0  1e-07 10 0

0101000
+14 0 *
Ve
1.01e-07
7.67 0.33 -0.05
0 0

0101101
*
Ed
 1e-07 1 1 0
1  30 0 0 8.84040347228381
0

0101000
+12 0 -31 0 *
Ed
 1.00005e-07 1 1 0
1  31 0 0 7.34
0

0101000
+17 0 -12 0 *
Wi

0101100
+30 0 +11 0 +10 0 -16 0 +38 0 *
Fa
0  1e-07 11 0

0101000
+9 0 *
Ed
 1.00005e-07 1 1 0
1  32 0 0 7.34
0

0101000
+12 0 -22 0 *
Wi

0101100
-11 0 +28 0 -20 0 +7 0 *
Fa
0  1e-07 12 0

0101000
+6 0 *
Wi

0101100
+21 0 +15 0 +10 0 +7 0 *
Fa
0  1e-07 13 0

0101000
+4 0 *
Sh

0101100
+74 0 -63 0 -58 0 -49 0 +46 0 -35 0 -32 0 -25 0 +18 0 +13 0 
+8 0 +5 0 -3 0 *
So

0100000
+2 0 *

+1 0 
0

